<svg width="37" height="37" viewBox="0 0 37 37" fill="none" xmlns="http://www.w3.org/2000/svg">
<rect x="5.5" y="5.5" width="31" height="31" rx="6.5" fill="white" stroke="#F8F8F8"/>
<path fill-rule="evenodd" clip-rule="evenodd" d="M20.9921 16.7207C19.6125 14.9878 17.312 14.5216 15.5835 16.1085C13.8551 17.6953 13.6117 20.3485 14.9691 22.2253C16.0977 23.7857 19.5131 27.0768 20.6326 28.1419C20.7578 28.2611 20.8204 28.3207 20.8934 28.3441C20.9572 28.3646 21.027 28.3646 21.0907 28.3441C21.1637 28.3207 21.2264 28.2611 21.3516 28.1419C22.471 27.0768 25.8865 23.7857 27.0151 22.2253C28.3724 20.3485 28.1588 17.6786 26.4006 16.1085C24.6424 14.5383 22.3716 14.9878 20.9921 16.7207Z" stroke="#ECECEC" stroke-width="1.5" stroke-linecap="round" stroke-linejoin="round"/>
</svg>
